<svg id="Capa_1" data-name="Capa 1" xmlns="http://www.w3.org/2000/svg" viewBox="0 0 400 200"><defs><style>.cls-1,.cls-4,.cls-5,.cls-6{fill:#fff;}.cls-2{fill:#1976d2;}.cls-3{fill:#888889;}.cls-4{stroke:#ccc;stroke-miterlimit:10;}.cls-5{opacity:0.58;}.cls-6{opacity:0.88;}.cls-7{fill:#afafaf;}</style></defs><title>ISHMesa de trabajo 1</title><path class="cls-1" d="M400,207.4c0,2.6-4.5,4.6-10,4.6H10c-5.5,0-10-2.1-10-4.6V63.2c0-2.6,4.5-4.7,10-4.7H390c5.5,0,10,2.1,10,4.7Z"/><path class="cls-2" d="M149.26,129.31a2.91,2.91,0,0,1-.25,1.21,3,3,0,0,1-.67,1,3.44,3.44,0,0,1-1,.67,3.13,3.13,0,0,1-1.22.25,3.18,3.18,0,0,1-1.23-.25,3.26,3.26,0,0,1-1-.67,3,3,0,0,1-.66-1,3.05,3.05,0,0,1,0-2.42,3.07,3.07,0,0,1,.66-1,3.26,3.26,0,0,1,1-.67,3.17,3.17,0,0,1,1.23-.24,3.12,3.12,0,0,1,1.22.24,3.44,3.44,0,0,1,1,.67,3.09,3.09,0,0,1,.67,1A2.91,2.91,0,0,1,149.26,129.31Zm-.8,23.27h-4.7v-18.3h4.7Z"/><path class="cls-3" d="M151.07,135.42a7.19,7.19,0,0,1,.58-2.85,7.56,7.56,0,0,1,1.58-2.33,7.38,7.38,0,0,1,2.34-1.58,7,7,0,0,1,2.85-.58h11.25V133H158.42a2.41,2.41,0,0,0-1.73.71,2.18,2.18,0,0,0-.52.78,2.3,2.3,0,0,0-.19.95,2.4,2.4,0,0,0,.19,1,2.31,2.31,0,0,0,.52.79,2.41,2.41,0,0,0,1.73.71h4.91a7.27,7.27,0,0,1,2.86.57,7.29,7.29,0,0,1,3.91,3.91,7.34,7.34,0,0,1-1.57,8,7.38,7.38,0,0,1-2.34,1.58,7.1,7.1,0,0,1-2.86.58H152.44v-4.9h10.89a2.45,2.45,0,1,0,0-4.89h-4.91a7,7,0,0,1-2.85-.58,7.42,7.42,0,0,1-3.92-3.92A7.29,7.29,0,0,1,151.07,135.42Z"/><path class="cls-3" d="M178.06,152.58h-4.67V127h4.67v8.08a5.34,5.34,0,0,1,1.72-.89,6.25,6.25,0,0,1,1.81-.27,7.89,7.89,0,0,1,3.18.64,8.19,8.19,0,0,1,2.59,1.76,8.42,8.42,0,0,1,1.75,2.62,8.1,8.1,0,0,1,.64,3.18v10.46h-4.7V142.12h0a3.43,3.43,0,0,0-.27-1.35,3.5,3.5,0,0,0-.75-1.12,3.64,3.64,0,0,0-1.12-.76,3.39,3.39,0,0,0-1.35-.27,3.54,3.54,0,0,0-1.38.27,3.68,3.68,0,0,0-1.13.76,3.34,3.34,0,0,0-.75,1.12,3.43,3.43,0,0,0-.27,1.35Z"/><path class="cls-3" d="M197.73,152.58h-4.67v-18.3h1.13l1.54,2.17a8.27,8.27,0,0,1,5.54-2.14h4.11V139h-4.11a3.39,3.39,0,0,0-1.39.28,3.49,3.49,0,0,0-1.13.75,3.38,3.38,0,0,0-.75,1.13,3.54,3.54,0,0,0-.27,1.38Z"/><path class="cls-3" d="M213.06,129.31a3,3,0,0,1-.93,2.19,3.19,3.19,0,0,1-1,.67,3.09,3.09,0,0,1-1.22.25,3.13,3.13,0,0,1-1.22-.25,3.26,3.26,0,0,1-1-.67,3.22,3.22,0,0,1-.67-1,3.17,3.17,0,0,1,0-2.42,3.16,3.16,0,0,1,1.66-1.66,3.12,3.12,0,0,1,1.22-.24,3.09,3.09,0,0,1,1.22.24,3.19,3.19,0,0,1,1,.67,3.12,3.12,0,0,1,.68,1A3.08,3.08,0,0,1,213.06,129.31Zm-.81,23.27h-4.7v-18.3h4.7Z"/><path class="cls-3" d="M239.08,152.58h-4.64V141a2.26,2.26,0,0,0-.18-.9,2.34,2.34,0,0,0-2.16-1.44,2.26,2.26,0,0,0-.9.18,2.36,2.36,0,0,0-.74.5,2.42,2.42,0,0,0-.49.76,2.26,2.26,0,0,0-.18.9v11.62h-4.67V141a2.26,2.26,0,0,0-.18-.9,2.28,2.28,0,0,0-.5-.76,2.52,2.52,0,0,0-.75-.5,2.34,2.34,0,0,0-.91-.18,2.26,2.26,0,0,0-.9.18,2.31,2.31,0,0,0-.73.5,2.45,2.45,0,0,0-.5.76,2.26,2.26,0,0,0-.18.9v11.62h-4.66v-18.3h1.13l1.26,1.4a7.44,7.44,0,0,1,2.15-1.27,6.71,6.71,0,0,1,2.43-.45,7,7,0,0,1,2.51.47,5.1,5.1,0,0,1,2.14,1.66,4.56,4.56,0,0,1,1-1,5.63,5.63,0,0,1,1.16-.67,5.42,5.42,0,0,1,1.25-.36,7.1,7.1,0,0,1,1.29-.11,6.91,6.91,0,0,1,2.72.54,7,7,0,0,1,3.72,3.73,6.93,6.93,0,0,1,.54,2.73Z"/><path class="cls-3" d="M247.19,159.56h-4.7V134.28h1.12l1.87,2.2a12.94,12.94,0,0,1,1.38-1.12,10.29,10.29,0,0,1,1.56-.92,9.45,9.45,0,0,1,1.69-.6,7,7,0,0,1,1.76-.23,9.35,9.35,0,0,1,3.63.7,8.91,8.91,0,0,1,3,1.95,9.21,9.21,0,0,1,2,3.05,10.31,10.31,0,0,1,.74,4,10.68,10.68,0,0,1-.74,4.06,9.05,9.05,0,0,1-2,3.06,8.69,8.69,0,0,1-3,1.92,9.92,9.92,0,0,1-3.63.67,5.57,5.57,0,0,1-1.22-.14,7.24,7.24,0,0,1-1.2-.37c-.39-.15-.78-.33-1.16-.52s-.75-.39-1.1-.6Zm9.34-16.29a5.73,5.73,0,0,0-.36-2.09,4.81,4.81,0,0,0-1-1.56,4.3,4.3,0,0,0-1.49-1,4.78,4.78,0,0,0-1.81-.34,4.69,4.69,0,0,0-1.8.34,4.25,4.25,0,0,0-1.48,1,4.65,4.65,0,0,0-1,1.56,5.52,5.52,0,0,0-.37,2.09,5.32,5.32,0,0,0,.37,2,4.74,4.74,0,0,0,1,1.58,4.45,4.45,0,0,0,1.48,1,4.52,4.52,0,0,0,1.8.36,4.6,4.6,0,0,0,1.81-.36,4.49,4.49,0,0,0,1.49-1,4.9,4.9,0,0,0,1-1.58A5.51,5.51,0,0,0,256.53,143.27Z"/><circle class="cls-4" cx="200" cy="63.42" r="53"/><circle class="cls-2" cx="200" cy="63.42" r="47.5"/><path class="cls-2" d="M174.84,58.85v-.12l0,.06,0-.06v.12a16,16,0,0,0,24.76.22v-.34l.15.17.14-.17v.34a16,16,0,0,0,24.55,0v-.36l.15.18a1,1,0,0,0,.15-.18v.36a16.69,16.69,0,0,0,11.92,5.71,16.15,16.15,0,0,0,10.69-3.86,47.5,47.5,0,0,0-94.89.43A16,16,0,0,0,162,64.8,16.8,16.8,0,0,0,174.84,58.85Z"/><path class="cls-5" d="M159.63,88.45a16.25,16.25,0,0,0,2.38.24,16.83,16.83,0,0,0,12.83-6v-.11l0,0,0,0v.11a16,16,0,0,0,24.76.22v-.33l.15.17.14-.17V83a16,16,0,0,0,24.55,0v-.35l.15.18.15-.18V83a16.72,16.72,0,0,0,11.92,5.72,15.53,15.53,0,0,0,3.7-.37,47.24,47.24,0,0,0,7.05-24.9c0-.83,0-1.66-.06-2.48a16.15,16.15,0,0,1-10.69,3.86,16.69,16.69,0,0,1-11.92-5.71v-.36a1,1,0,0,1-.15.18l-.15-.18v.36a16,16,0,0,1-24.55,0v-.34l-.14.17-.15-.17v.34a16,16,0,0,1-24.76-.22v-.12l0,.06,0-.06v.12A16.8,16.8,0,0,1,162,64.8a16,16,0,0,1-9.46-3.43c0,.68-.05,1.36-.05,2.05A47.26,47.26,0,0,0,159.63,88.45Z"/><path class="cls-6" d="M236.75,88.69A16.72,16.72,0,0,1,224.83,83v-.35l-.15.18-.15-.18V83A16,16,0,0,1,200,83v-.33l-.14.17-.15-.17V83a16,16,0,0,1-24.76-.22v-.11l0,0,0,0v.11a16.83,16.83,0,0,1-12.83,6,16.25,16.25,0,0,1-2.38-.24c.1.16.2.33.31.49a47.5,47.5,0,0,0,80.12,0c.14-.2.26-.41.39-.62A15.53,15.53,0,0,1,236.75,88.69Z"/><path class="cls-7" d="M184.77,174.35l-1.12-.66a4.44,4.44,0,0,1-1.74-1.85,6,6,0,0,1-.61-2.79v-3.89a6,6,0,0,1,.61-2.79,4.47,4.47,0,0,1,1.74-1.86,5,5,0,0,1,2.59-.66,4.91,4.91,0,0,1,2.25.53,4.67,4.67,0,0,1,1.71,1.48,5.42,5.42,0,0,1,.93,2.21h-2a3.19,3.19,0,0,0-1.64-2,2.87,2.87,0,0,0-2.73.14,2.77,2.77,0,0,0-1,1.17,4.11,4.11,0,0,0-.36,1.77v3.89a4.07,4.07,0,0,0,.36,1.76,2.74,2.74,0,0,0,1,1.18,2.81,2.81,0,0,0,1.52.41,2.84,2.84,0,0,0,2.23-1,3.11,3.11,0,0,0,.62-1.23h2a5.42,5.42,0,0,1-.93,2.21,4.83,4.83,0,0,1-4,2Z"/><path class="cls-7" d="M197.14,174.35l-1.12-.66a4.48,4.48,0,0,1-1.73-1.85,6,6,0,0,1-.62-2.79v-3.89a6,6,0,0,1,.62-2.79,4.51,4.51,0,0,1,1.73-1.86,5,5,0,0,1,2.59-.66,4.85,4.85,0,0,1,2.25.53,4.67,4.67,0,0,1,1.71,1.48,5.57,5.57,0,0,1,.94,2.21h-2a3.19,3.19,0,0,0-1.64-2,2.72,2.72,0,0,0-1.21-.28,2.75,2.75,0,0,0-1.52.42,2.84,2.84,0,0,0-1,1.17,4.11,4.11,0,0,0-.36,1.77v3.89a4.07,4.07,0,0,0,.36,1.76,2.67,2.67,0,0,0,2.54,1.59,3,3,0,0,0,1.22-.26,2.93,2.93,0,0,0,1-.78,3.11,3.11,0,0,0,.62-1.23h2a5.57,5.57,0,0,1-.94,2.21,4.83,4.83,0,0,1-4,2Z"/><path class="cls-7" d="M216.54,160h1.87v14.2h-1.95V163.56l.1.63-3.49,8h-1.39l-3.5-7.85.1-.82V174.2h-1.94V160h1.86l4.17,9.38Z"/></svg>